<svg xmlns="http://www.w3.org/2000/svg" xmlns:xlink="http://www.w3.org/1999/xlink" width="1920" zoomAndPan="magnify" viewBox="0 0 1440 809.999993" height="1080" preserveAspectRatio="xMidYMid meet" version="1.0"><defs><filter x="0%" y="0%" width="100%" height="100%" id="8a56092fee"><feColorMatrix values="0 0 0 0 1 0 0 0 0 1 0 0 0 0 1 0 0 0 1 0" color-interpolation-filters="sRGB"/></filter><g/><mask id="73895ccf50"><g filter="url(#8a56092fee)"><rect x="-144" width="1728" fill="#000000" y="-80.999999" height="971.999992" fill-opacity="0.298"/></g></mask><clipPath id="9fc3aa82e4"><path d="M 0.921875 1 L 402 1 L 402 179 L 0.921875 179 Z M 0.921875 1 " clip-rule="nonzero"/></clipPath><clipPath id="b4c1b70b6d"><path d="M 0.972656 433.054688 L 399.851562 1.035156 L 401.503906 2.5625 L 2.625 434.582031 Z M 0.972656 433.054688 " clip-rule="nonzero"/></clipPath><clipPath id="2aa9e0de76"><rect x="0" width="403" y="0" height="179"/></clipPath><clipPath id="cc04ee301b"><path d="M 278.265625 229.816406 L 1144 229.816406 L 1144 547 L 278.265625 547 Z M 278.265625 229.816406 " clip-rule="nonzero"/></clipPath><clipPath id="6fd511862f"><path d="M 314.265625 229.816406 L 1108.808594 229.816406 C 1118.355469 229.816406 1127.515625 233.609375 1134.265625 240.359375 C 1141.015625 247.113281 1144.808594 256.269531 1144.808594 265.816406 L 1144.808594 510.910156 C 1144.808594 520.457031 1141.015625 529.613281 1134.265625 536.367188 C 1127.515625 543.117188 1118.355469 546.910156 1108.808594 546.910156 L 314.265625 546.910156 C 304.714844 546.910156 295.558594 543.117188 288.808594 536.367188 C 282.058594 529.613281 278.265625 520.457031 278.265625 510.910156 L 278.265625 265.816406 C 278.265625 256.269531 282.058594 247.113281 288.808594 240.359375 C 295.558594 233.609375 304.714844 229.816406 314.265625 229.816406 " clip-rule="nonzero"/></clipPath><clipPath id="a77e6cb693"><path d="M 278.273438 229.816406 L 1144.515625 229.816406 L 1144.515625 547.066406 L 278.273438 547.066406 Z M 278.273438 229.816406 " clip-rule="nonzero"/></clipPath><clipPath id="201baab25e"><path d="M 314.261719 229.816406 L 1108.519531 229.816406 C 1118.0625 229.816406 1127.214844 233.613281 1133.964844 240.367188 C 1140.714844 247.121094 1144.503906 256.28125 1144.503906 265.835938 L 1144.503906 511.050781 C 1144.503906 520.601562 1140.714844 529.761719 1133.964844 536.515625 C 1127.214844 543.273438 1118.0625 547.066406 1108.519531 547.066406 L 314.261719 547.066406 C 304.71875 547.066406 295.5625 543.273438 288.816406 536.515625 C 282.066406 529.761719 278.273438 520.601562 278.273438 511.050781 L 278.273438 265.835938 C 278.273438 256.28125 282.066406 247.121094 288.816406 240.367188 C 295.5625 233.613281 304.71875 229.816406 314.261719 229.816406 " clip-rule="nonzero"/></clipPath><clipPath id="73004be120"><path d="M 370.113281 263.742188 L 620.574219 263.742188 L 620.574219 512.984375 L 370.113281 512.984375 Z M 370.113281 263.742188 " clip-rule="nonzero"/></clipPath><clipPath id="5442fefd19"><path d="M 495.34375 263.742188 C 426.179688 263.742188 370.113281 319.535156 370.113281 388.363281 C 370.113281 457.191406 426.179688 512.984375 495.34375 512.984375 C 564.507812 512.984375 620.574219 457.191406 620.574219 388.363281 C 620.574219 319.535156 564.507812 263.742188 495.34375 263.742188 " clip-rule="nonzero"/></clipPath><clipPath id="b289b2400a"><path d="M 351.460938 263.742188 L 609.511719 263.742188 L 609.511719 521.789062 L 351.460938 521.789062 Z M 351.460938 263.742188 " clip-rule="nonzero"/></clipPath><clipPath id="6924a12a60"><path d="M 480.488281 263.742188 C 409.230469 263.742188 351.460938 321.507812 351.460938 392.765625 C 351.460938 464.023438 409.230469 521.789062 480.488281 521.789062 C 551.746094 521.789062 609.511719 464.023438 609.511719 392.765625 C 609.511719 321.507812 551.746094 263.742188 480.488281 263.742188 " clip-rule="nonzero"/></clipPath></defs><g mask="url(#73895ccf50)"><g transform="matrix(1, 0, 0, 1, 733, 631)"><g clip-path="url(#2aa9e0de76)"><g clip-path="url(#9fc3aa82e4)"><g clip-path="url(#b4c1b70b6d)"><path fill="#ffffff" d="M 0.972656 433.054688 L 399.851562 1.035156 L 401.503906 2.5625 L 2.625 434.582031 Z M 0.972656 433.054688 " fill-opacity="1" fill-rule="nonzero"/></g></g></g></g></g><g clip-path="url(#cc04ee301b)"><g clip-path="url(#6fd511862f)"><path fill="#ffffff" d="M 278.265625 229.816406 L 1143.953125 229.816406 L 1143.953125 548.753906 L 278.265625 548.753906 Z M 278.265625 229.816406 " fill-opacity="1" fill-rule="nonzero"/></g></g><g clip-path="url(#a77e6cb693)"><g clip-path="url(#201baab25e)"><path stroke-linecap="butt" transform="matrix(0.749746, 0, 0, 0.750388, 278.27422, 229.816693)" fill="none" stroke-linejoin="miter" d="M 47.99956 -0.000382453 L 1107.368147 -0.000382453 C 1120.096409 -0.000382453 1132.303661 5.0595 1141.306705 14.060053 C 1150.309749 23.060605 1155.363541 35.267832 1155.363541 48.000828 L 1155.363541 374.78491 C 1155.363541 387.512701 1150.309749 399.719928 1141.306705 408.720481 C 1132.303661 417.726239 1120.096409 422.780915 1107.368147 422.780915 L 47.99956 422.780915 C 35.271298 422.780915 23.058836 417.726239 14.061002 408.720481 C 5.057958 399.719928 -0.00104398 387.512701 -0.00104398 374.78491 L -0.00104398 48.000828 C -0.00104398 35.267832 5.057958 23.060605 14.061002 14.060053 C 23.058836 5.0595 35.271298 -0.000382453 47.99956 -0.000382453 " stroke="#c09f3b" stroke-width="6" stroke-opacity="1" stroke-miterlimit="4"/></g></g><g clip-path="url(#73004be120)"><g clip-path="url(#5442fefd19)"><path fill="#f8f9f0" d="M 370.113281 263.742188 L 620.574219 263.742188 L 620.574219 512.984375 L 370.113281 512.984375 Z M 370.113281 263.742188 " fill-opacity="1" fill-rule="nonzero"/></g></g><g clip-path="url(#b289b2400a)"><g clip-path="url(#6924a12a60)"><path fill="#f3d472" d="M 351.460938 263.742188 L 609.511719 263.742188 L 609.511719 521.789062 L 351.460938 521.789062 Z M 351.460938 263.742188 " fill-opacity="1" fill-rule="nonzero"/></g></g><g fill="#f4f5f7" fill-opacity="1"><g transform="translate(436.532792, 436.461648)"><g><path d="M 24.609375 -96.359375 C 38.351562 -96.359375 45.222656 -100.355469 45.222656 -109.144531 C 45.222656 -117.773438 38.351562 -121.929688 24.609375 -121.929688 C 11.984375 -121.929688 5.59375 -117.773438 5.59375 -109.144531 C 5.59375 -100.355469 11.984375 -96.359375 24.609375 -96.359375 Z M 8.148438 -86.292969 C 10.707031 -56.410156 10.707031 -29.5625 8.148438 0 L 41.390625 0 C 38.832031 -29.722656 38.832031 -56.570312 41.390625 -86.292969 C 30.203125 -83.894531 19.496094 -84.214844 8.148438 -86.292969 Z M 8.148438 -86.292969 "/></g></g></g><g fill="#f4f5f7" fill-opacity="1"><g transform="translate(487.348197, 436.461648)"><g><path d="M 7.988281 0 L 41.546875 0 L 41.546875 -34.675781 C 41.546875 -54.011719 49.699219 -65.359375 63.28125 -65.359375 C 76.226562 -65.359375 83.894531 -54.171875 83.894531 -35.15625 L 83.894531 0 L 116.816406 0 C 113.300781 -15.339844 114.097656 -36.433594 114.097656 -53.214844 C 114.097656 -72.871094 105.949219 -89.648438 81.980469 -89.648438 C 61.683594 -89.648438 46.980469 -74.949219 40.269531 -55.929688 L 37.714844 -55.929688 C 38.671875 -68.234375 40.269531 -77.503906 44.105469 -90.289062 C 35.957031 -86.453125 21.09375 -84.054688 7.988281 -83.257812 C 12.464844 -55.453125 12.464844 -25.410156 7.988281 0 Z M 7.988281 0 "/></g></g></g><g fill="#f4f5f7" fill-opacity="1"><g transform="translate(611.350578, 436.461648)"><g><path d="M 12.785156 0 L 50.496094 0 C 47.941406 -15.019531 47.460938 -30.203125 47.460938 -45.222656 C 73.988281 -46.023438 107.066406 -44.585938 126.402344 -42.988281 C 125.605469 -50.65625 125.605469 -59.285156 126.402344 -66.957031 C 107.226562 -65.199219 74.148438 -63.601562 47.460938 -64.242188 C 47.140625 -75.585938 47.140625 -87.09375 47.78125 -98.4375 C 74.46875 -98.917969 118.414062 -95.722656 137.589844 -90.449219 C 136.789062 -100.035156 136.789062 -109.785156 137.589844 -119.371094 C 110.265625 -116.496094 27.007812 -117.773438 12.785156 -119.851562 C 15.179688 -92.207031 15.179688 -27.644531 12.785156 0 Z M 12.785156 0 "/></g></g></g><g fill="#f4f5f7" fill-opacity="1"><g transform="translate(752.930606, 436.461648)"><g><path d="M 114.578125 0 C 110.582031 -12.785156 109.304688 -28.605469 109.304688 -49.539062 C 109.304688 -79.261719 89.488281 -89.328125 58.167969 -89.328125 C 36.753906 -89.328125 20.933594 -84.214844 8.628906 -78.941406 C 10.066406 -72.550781 10.066406 -58.96875 8.628906 -51.457031 C 18.058594 -61.042969 35.636719 -68.074219 54.011719 -68.074219 C 73.828125 -68.074219 78.78125 -59.765625 79.902344 -47.460938 L 55.132812 -47.460938 C 21.574219 -47.460938 5.59375 -36.914062 5.59375 -21.574219 C 5.59375 -7.832031 17.417969 2.558594 40.910156 2.558594 C 61.363281 2.558594 71.433594 -5.433594 80.0625 -19.015625 C 80.378906 -12.785156 81.339844 -6.390625 83.417969 0 Z M 55.929688 -17.578125 C 43.625 -17.578125 38.03125 -21.894531 38.03125 -28.125 C 38.03125 -35.957031 48.578125 -39.949219 71.273438 -39.949219 L 80.0625 -39.949219 L 80.0625 -36.753906 C 80.0625 -32.441406 79.902344 -27.964844 79.902344 -23.492188 C 72.390625 -19.496094 64.082031 -17.578125 55.929688 -17.578125 Z M 55.929688 -17.578125 "/></g></g></g><g fill="#f4f5f7" fill-opacity="1"><g transform="translate(873.097867, 436.461648)"><g><path d="M 62.644531 1.757812 C 79.742188 1.757812 95.722656 -1.597656 109.464844 -8.46875 C 106.90625 -15.339844 106.90625 -27.964844 109.464844 -34.996094 C 98.917969 -25.570312 84.054688 -20.136719 67.757812 -20.136719 C 46.183594 -20.136719 34.515625 -28.285156 34.515625 -43.945312 C 34.515625 -59.605469 46.183594 -67.757812 67.757812 -67.757812 C 84.054688 -67.757812 99.398438 -60.40625 109.464844 -49.699219 C 106.90625 -56.730469 106.90625 -72.550781 109.464844 -79.421875 C 95.722656 -86.292969 79.742188 -89.648438 62.644531 -89.648438 C 24.289062 -89.648438 4.472656 -72.550781 4.472656 -43.945312 C 4.472656 -15.339844 24.289062 1.757812 62.644531 1.757812 Z M 62.644531 1.757812 "/></g></g></g><g fill="#f4f5f7" fill-opacity="1"><g transform="translate(988.950613, 436.461648)"><g><path d="M 50.335938 -68.074219 C 65.039062 -67.917969 79.421875 -67.117188 92.046875 -65.679688 C 91.246094 -73.667969 91.246094 -78.304688 92.046875 -86.292969 C 79.582031 -84.855469 65.359375 -84.054688 50.816406 -83.894531 C 51.136719 -95.242188 51.617188 -106.90625 51.9375 -117.453125 C 42.507812 -112.660156 31.800781 -110.902344 19.015625 -109.464844 C 19.976562 -102.753906 20.613281 -93.964844 21.09375 -84.535156 C 13.421875 -84.855469 6.074219 -85.496094 -0.800781 -86.292969 C 0 -80.699219 0 -71.113281 -0.800781 -65.679688 C 6.230469 -66.476562 13.902344 -67.117188 21.894531 -67.4375 C 22.371094 -50.816406 22.371094 -35.476562 22.371094 -29.5625 C 22.371094 -4.953125 40.75 2.078125 60.246094 2.078125 C 71.433594 2.078125 82.9375 -0.320312 91.566406 -2.875 C 90.128906 -9.746094 90.449219 -17.097656 92.046875 -24.128906 C 85.335938 -22.851562 76.546875 -20.292969 68.875 -20.292969 C 58.167969 -20.292969 49.21875 -24.929688 49.699219 -43.625 C 49.859375 -50.816406 50.179688 -59.125 50.335938 -68.074219 Z M 50.335938 -68.074219 "/></g></g></g><g fill="#2a364e" fill-opacity="1"><g transform="translate(426.486177, 437.089539)"><g><path d="M 24.609375 -96.359375 C 38.351562 -96.359375 45.222656 -100.355469 45.222656 -109.144531 C 45.222656 -117.773438 38.351562 -121.929688 24.609375 -121.929688 C 11.984375 -121.929688 5.59375 -117.773438 5.59375 -109.144531 C 5.59375 -100.355469 11.984375 -96.359375 24.609375 -96.359375 Z M 8.148438 -86.292969 C 10.707031 -56.410156 10.707031 -29.5625 8.148438 0 L 41.390625 0 C 38.832031 -29.722656 38.832031 -56.570312 41.390625 -86.292969 C 30.203125 -83.894531 19.496094 -84.214844 8.148438 -86.292969 Z M 8.148438 -86.292969 "/></g></g></g><g fill="#2a364e" fill-opacity="1"><g transform="translate(477.301581, 437.089539)"><g><path d="M 7.988281 0 L 41.546875 0 L 41.546875 -34.675781 C 41.546875 -54.011719 49.699219 -65.359375 63.28125 -65.359375 C 76.226562 -65.359375 83.894531 -54.171875 83.894531 -35.15625 L 83.894531 0 L 116.816406 0 C 113.300781 -15.339844 114.097656 -36.433594 114.097656 -53.214844 C 114.097656 -72.871094 105.949219 -89.648438 81.980469 -89.648438 C 61.683594 -89.648438 46.980469 -74.949219 40.269531 -55.929688 L 37.714844 -55.929688 C 38.671875 -68.234375 40.269531 -77.503906 44.105469 -90.289062 C 35.957031 -86.453125 21.09375 -84.054688 7.988281 -83.257812 C 12.464844 -55.453125 12.464844 -25.410156 7.988281 0 Z M 7.988281 0 "/></g></g></g><g fill="#2a364e" fill-opacity="1"><g transform="translate(601.303963, 437.089539)"><g><path d="M 12.785156 0 L 50.496094 0 C 47.941406 -15.019531 47.460938 -30.203125 47.460938 -45.222656 C 73.988281 -46.023438 107.066406 -44.585938 126.402344 -42.988281 C 125.605469 -50.65625 125.605469 -59.285156 126.402344 -66.957031 C 107.226562 -65.199219 74.148438 -63.601562 47.460938 -64.242188 C 47.140625 -75.585938 47.140625 -87.09375 47.78125 -98.4375 C 74.46875 -98.917969 118.414062 -95.722656 137.589844 -90.449219 C 136.789062 -100.035156 136.789062 -109.785156 137.589844 -119.371094 C 110.265625 -116.496094 27.007812 -117.773438 12.785156 -119.851562 C 15.179688 -92.207031 15.179688 -27.644531 12.785156 0 Z M 12.785156 0 "/></g></g></g><g fill="#2a364e" fill-opacity="1"><g transform="translate(742.883991, 437.089539)"><g><path d="M 114.578125 0 C 110.582031 -12.785156 109.304688 -28.605469 109.304688 -49.539062 C 109.304688 -79.261719 89.488281 -89.328125 58.167969 -89.328125 C 36.753906 -89.328125 20.933594 -84.214844 8.628906 -78.941406 C 10.066406 -72.550781 10.066406 -58.96875 8.628906 -51.457031 C 18.058594 -61.042969 35.636719 -68.074219 54.011719 -68.074219 C 73.828125 -68.074219 78.78125 -59.765625 79.902344 -47.460938 L 55.132812 -47.460938 C 21.574219 -47.460938 5.59375 -36.914062 5.59375 -21.574219 C 5.59375 -7.832031 17.417969 2.558594 40.910156 2.558594 C 61.363281 2.558594 71.433594 -5.433594 80.0625 -19.015625 C 80.378906 -12.785156 81.339844 -6.390625 83.417969 0 Z M 55.929688 -17.578125 C 43.625 -17.578125 38.03125 -21.894531 38.03125 -28.125 C 38.03125 -35.957031 48.578125 -39.949219 71.273438 -39.949219 L 80.0625 -39.949219 L 80.0625 -36.753906 C 80.0625 -32.441406 79.902344 -27.964844 79.902344 -23.492188 C 72.390625 -19.496094 64.082031 -17.578125 55.929688 -17.578125 Z M 55.929688 -17.578125 "/></g></g></g><g fill="#2a364e" fill-opacity="1"><g transform="translate(863.051251, 437.089539)"><g><path d="M 62.644531 1.757812 C 79.742188 1.757812 95.722656 -1.597656 109.464844 -8.46875 C 106.90625 -15.339844 106.90625 -27.964844 109.464844 -34.996094 C 98.917969 -25.570312 84.054688 -20.136719 67.757812 -20.136719 C 46.183594 -20.136719 34.515625 -28.285156 34.515625 -43.945312 C 34.515625 -59.605469 46.183594 -67.757812 67.757812 -67.757812 C 84.054688 -67.757812 99.398438 -60.40625 109.464844 -49.699219 C 106.90625 -56.730469 106.90625 -72.550781 109.464844 -79.421875 C 95.722656 -86.292969 79.742188 -89.648438 62.644531 -89.648438 C 24.289062 -89.648438 4.472656 -72.550781 4.472656 -43.945312 C 4.472656 -15.339844 24.289062 1.757812 62.644531 1.757812 Z M 62.644531 1.757812 "/></g></g></g><g fill="#2a364e" fill-opacity="1"><g transform="translate(978.903998, 437.089539)"><g><path d="M 50.335938 -68.074219 C 65.039062 -67.917969 79.421875 -67.117188 92.046875 -65.679688 C 91.246094 -73.667969 91.246094 -78.304688 92.046875 -86.292969 C 79.582031 -84.855469 65.359375 -84.054688 50.816406 -83.894531 C 51.136719 -95.242188 51.617188 -106.90625 51.9375 -117.453125 C 42.507812 -112.660156 31.800781 -110.902344 19.015625 -109.464844 C 19.976562 -102.753906 20.613281 -93.964844 21.09375 -84.535156 C 13.421875 -84.855469 6.074219 -85.496094 -0.800781 -86.292969 C 0 -80.699219 0 -71.113281 -0.800781 -65.679688 C 6.230469 -66.476562 13.902344 -67.117188 21.894531 -67.4375 C 22.371094 -50.816406 22.371094 -35.476562 22.371094 -29.5625 C 22.371094 -4.953125 40.75 2.078125 60.246094 2.078125 C 71.433594 2.078125 82.9375 -0.320312 91.566406 -2.875 C 90.128906 -9.746094 90.449219 -17.097656 92.046875 -24.128906 C 85.335938 -22.851562 76.546875 -20.292969 68.875 -20.292969 C 58.167969 -20.292969 49.21875 -24.929688 49.699219 -43.625 C 49.859375 -50.816406 50.179688 -59.125 50.335938 -68.074219 Z M 50.335938 -68.074219 "/></g></g></g></svg>