<?xml version="1.0" encoding="utf-8"?>
<!-- Generator: Adobe Illustrator 26.5.0, SVG Export Plug-In . SVG Version: 6.00 Build 0)  -->
<svg version="1.1" id="Capa_1" xmlns="http://www.w3.org/2000/svg" xmlns:xlink="http://www.w3.org/1999/xlink" x="0px" y="0px"
	 viewBox="0 0 1080 432" style="enable-background:new 0 0 1080 432;" xml:space="preserve">
<style type="text/css">
	.st0{fill:#818282;}
	.st1{fill:#7D7E7E;}
	.st2{fill:#7F8080;}
	.st3{fill:#808181;}
	.st4{fill:#7E7E7E;}
	.st5{fill:#808080;}
	.st6{fill:#808081;}
	.st7{opacity:0.5216;fill-rule:evenodd;clip-rule:evenodd;fill:#FCBF0B;}
</style>
<g>
	<path class="st0" d="M500.31,321.57c-29.76,0-59.51,0-92.32,0c14.97-14.66,15.16-31.52,15-49.04
		c-0.52-57.76-0.39-115.54-0.06-173.3c0.08-13.26-0.94-25.5-12.35-38.24c29.91,0,59.83,0,89.74,0c21.81,0,43.72,1.23,65.41-0.38
		c18.64-1.38,26.91,4.61,25.96,23.5c-0.52,10.31,0.74,20.71,1.26,32.55c-12.86-1.62-13.87-13.51-20.76-19
		c-8.96-7.14-18.51-12.84-29.44-16.17c-47.34-14.4-53.98-9.69-53.98,38.08c0,9.63-0.01,19.26,0,28.88
		c0.03,31.45,4.89,34.55,34.45,22.4c9.94-4.08,17.29-11.24,26.79-25.79c2.43,29.11,2.62,51.48-0.09,76.95
		c-7.96-7.12-13.08-13.05-19.43-17.07c-11.11-7.03-24.82-12.9-36.57-7.52c-10.55,4.82-4.54,18.74-4.94,28.57
		c-0.75,18.42-0.09,36.9-0.24,55.35C488.66,295.09,488.34,308.79,500.31,321.57z"/>
	<path class="st1" d="M266.32,321.88c-28.38,0-54.95,0-77.99,0c10.12-57.61,10.83-114.55-0.76-172.03
		c10.41-1.96,25.75-2.02,38.41-7.84c24.34-11.2,31.91-4.25,26.85,23.45c15.95-11.09,28.77-21.26,45.76-25.06
		c40.3-9.01,69.63,11.75,70.68,52.71c0.74,28.87,0.04,57.77,0,86.66c-0.02,14.27-2.32,29.17,18.29,41.34c-34.41,0-61.32,0-91.54,0
		c16.81-14.22,14.87-31.95,14.76-49.36c-0.16-26.48,0.13-52.97-0.18-79.44c-0.14-11.51-1.73-23.31-15.02-27.34
		c-12.45-3.78-21.73,3.26-29.83,11.65c-7.49,7.76-12.24,16.86-12.25,27.92c-0.01,28.89,0.59,57.8-0.32,86.66
		C252.8,303.4,261.29,311.16,266.32,321.88z"/>
	<path class="st2" d="M774.5,304.97c-29.36,29.18-75.35,23.79-88.43-11.65c-10.4,7.65-19.75,16.52-30.77,22.24
		c-29.41,15.29-64.47,5.65-75.31-19.46c-11.27-26.12,4.1-57.46,35.29-69.1c14.98-5.59,31.15-7.94,46.52-12.62
		c11.77-3.59,23.72-9.02,25.53-22.72c1.68-12.75-0.37-25.8-10.62-35.4c-6.08-5.69-13.74-5.14-20.14-0.76
		c-11.56,7.92-16.14,19.6-15.1,33.34c1.61,21.17-6.9,28.63-28.07,24.29c-24.85-5.1-33.61-28.21-18.86-49.77
		c17.34-25.34,64.39-36.56,104.3-24.86c33.49,9.81,47.81,30.11,48,68.37c0.12,24.82,1.12,49.71-0.32,74.45
		c-1.12,19.35,6.74,24.41,24.08,20.15C771.91,302.63,773.21,303.8,774.5,304.97z M688.22,247.41c0-8.89,0.1-16.05-0.03-23.2
		c-0.14-8.01-4.24-10.15-10.65-5.67c-15.75,11.02-31.55,22.32-39.3,40.78c-4.72,11.24-3.53,22.11,7.3,29.76
		c10.19,7.2,19.75,3.19,28.88-2.84C689.51,276.24,689.37,261.11,688.22,247.41z"/>
	<path class="st3" d="M951.33,270.73c-12.64,43.5-63.68,65.98-108.41,51.25c-37.03-12.2-59.54-38.69-65.22-76.58
		c-5.81-38.75,7.58-71.78,40.86-93.97c32.11-21.42,66.5-23.29,100.59-3.77c18.2,10.42,31.48,24.97,33.12,47.29
		c1.04,14.14-3.4,25.4-16.73,31.81c-14.5,6.97-28.13,4.26-41.13-4.41c-8.52-5.68-4.97-11.48-1.54-18.41
		c7.85-15.86,10.25-32.38-0.66-47.81c-6.32-8.94-16.47-10.38-26.23-6.64c-18.16,6.95-23.23,23.18-26.56,40.12
		c-1.08,5.49-1.89,11.13-1.95,16.72c-0.36,30.17,5.4,58.91,33.53,75.38C897.15,296.99,923.77,291.98,951.33,270.73z"/>
	<path class="st4" d="M1033.41,78.21c15.59,22.44-17.23,63.59,33.34,61.82c-0.74,3.05-1.15,5.8-1.43,5.79
		c-25.34-1.15-28.01,13.45-27,34.23c1.58,32.81,0.89,65.75,0.24,98.62c-0.38,19.06-0.22,35.39,28.18,18.99
		c-16.27,27.98-47.81,36.7-71.91,22.78c-11.99-6.93-14.89-17.58-14.74-30.59c0.42-38.49,0.33-76.99,0.04-115.48
		c-0.1-13.26,6.68-30.92-22.45-30.15C992.72,129.23,1013.19,104.81,1033.41,78.21z"/>
	<path class="st5" d="M168.13,321.43c-30.22,0-56.39,0-79.64,0c12.34-57.36,12.14-113.82,0.44-171.35
		c11.95-2.79,28.87-4.68,44.06-10.81c20.54-8.3,22.77,0.01,22.4,17.5c-0.84,40.1-0.18,80.22-0.31,120.33
		C155.03,292.18,153.63,307.44,168.13,321.43z"/>
	<path class="st6" d="M156.09,88.44c-0.43,17.4-15.46,31.28-33.5,30.95c-18.61-0.34-34.78-16.73-33.57-34.02
		c1.18-16.84,16.82-29.75,35.34-29.16C143.26,56.81,156.54,70.31,156.09,88.44z"/>
	<path class="st2" d="M770.62,301.46c1.75-0.73,3.51-1.46,5.26-2.2c-0.47,1.9-0.94,3.8-1.39,5.7
		C773.21,303.8,771.91,302.63,770.62,301.46z"/>
	<g>
		<path class="st7" d="M8.46,216.23c0-113.72,92.37-205.91,206.32-205.91S421.1,102.51,421.1,216.23s-92.37,205.91-206.32,205.91
			S8.46,329.95,8.46,216.23L8.46,216.23z"/>
	</g>
</g>
</svg>
